<svg xmlns="http://www.w3.org/2000/svg" viewBox="0 0 149.78 44.91"><defs><style>.cls-1{fill:#1f407a;}</style></defs><title>logo</title><g id="Layer_2" data-name="Layer 2"><g id="Layer_1-2" data-name="Layer 1"><path class="cls-1" d="M6.54.58A.37.37,0,0,1,6.9.31h3.51a.37.37,0,0,1,.37.27L17.18,19c.06.17,0,.28-.19.28H13.37A.34.34,0,0,1,13,19l-1.08-3.31H5.29L4.23,19a.34.34,0,0,1-.36.28H.22C0,19.25,0,19.14,0,19Zm4.26,11.6L8.66,5.54H8.57L6.43,12.18Z"/><path class="cls-1" d="M36.3,19.25a.36.36,0,0,1-.36-.28L32.65,7.19h0L29.28,19a.36.36,0,0,1-.36.28H26.13A.34.34,0,0,1,25.8,19L20.89.58c0-.16,0-.27.23-.27h3.59A.3.3,0,0,1,25,.58l2.74,11.9h0L31.06.58a.37.37,0,0,1,.37-.27h2.42a.34.34,0,0,1,.33.27l3.35,11.9h0L40.2.58a.29.29,0,0,1,.34-.27H44.1c.2,0,.25.11.23.27L39.45,19a.34.34,0,0,1-.36.28Z"/><path class="cls-1" d="M50.38.58a.26.26,0,0,1,.28-.27H62.8a.26.26,0,0,1,.28.27v3a.26.26,0,0,1-.28.27H54.64a.15.15,0,0,0-.17.17V7.77a.15.15,0,0,0,.17.17h6.8a.26.26,0,0,1,.28.28v2.95a.26.26,0,0,1-.28.28h-6.8a.15.15,0,0,0-.17.17v3.93c0,.11.06.16.17.16H62.8a.27.27,0,0,1,.28.28v3a.26.26,0,0,1-.28.28H50.66a.26.26,0,0,1-.28-.28Z"/><path class="cls-1" d="M69.1,17a.35.35,0,0,1,0-.48l2.11-2.42a.28.28,0,0,1,.42,0,8,8,0,0,0,5,2c2,0,3.09-.92,3.09-2.25,0-1.12-.67-1.81-2.92-2.12l-1-.14c-3.84-.53-6-2.34-6-5.68S72.36,0,76.46,0A10.7,10.7,0,0,1,82.9,2c.16.11.19.22,0,.42l-1.7,2.53a.28.28,0,0,1-.39.09,7.81,7.81,0,0,0-4.4-1.45c-1.67,0-2.54.86-2.54,2.06s.78,1.78,3,2.09l1,.14c3.9.53,6,2.31,6,5.74s-2.53,6-7.44,6A11.19,11.19,0,0,1,69.1,17Z"/><path class="cls-1" d="M90.53,15A15.53,15.53,0,0,1,90,9.78a15.53,15.53,0,0,1,.53-5.18c1-3.07,3.6-4.6,6.91-4.6s5.94,1.53,6.91,4.6a15.27,15.27,0,0,1,.53,5.18,15.27,15.27,0,0,1-.53,5.18c-1,3.07-3.59,4.6-6.91,4.6S91.51,18,90.53,15Zm9.89-1.11a13.59,13.59,0,0,0,.31-4.07,13.59,13.59,0,0,0-.31-4.07,3.17,3.17,0,0,0-6,0,14.13,14.13,0,0,0-.3,4.07,14.13,14.13,0,0,0,.3,4.07,3.17,3.17,0,0,0,6,0Z"/><path class="cls-1" d="M111.91.58a.26.26,0,0,1,.28-.27h3.31a.44.44,0,0,1,.45.27l4.79,10.82h.11L125.56.58A.43.43,0,0,1,126,.31h3.26a.26.26,0,0,1,.27.27V19a.26.26,0,0,1-.27.28h-3.15a.26.26,0,0,1-.28-.28V8.3h-.11l-3.51,8a.54.54,0,0,1-.53.36h-1.93a.54.54,0,0,1-.53-.36l-3.51-8h-.11V19a.26.26,0,0,1-.28.28h-3.14a.26.26,0,0,1-.28-.28Z"/><path class="cls-1" d="M137.07.58a.26.26,0,0,1,.28-.27H149.5a.27.27,0,0,1,.28.27v3a.27.27,0,0,1-.28.27h-8.17c-.11,0-.16.06-.16.17V7.77c0,.11.05.17.16.17h6.8a.26.26,0,0,1,.28.28v2.95a.26.26,0,0,1-.28.28h-6.8c-.11,0-.16.06-.16.17v3.93a.14.14,0,0,0,.16.16h8.17a.27.27,0,0,1,.28.28v3a.27.27,0,0,1-.28.28H137.35a.26.26,0,0,1-.28-.28Z"/><path class="cls-1" d="M.94,34.78c0-3,.12-4,.55-5.31,1-3.21,3.55-4.82,7-4.82A6.9,6.9,0,0,1,15.32,29a.22.22,0,0,1-.15.34L12,30.77a.28.28,0,0,1-.41-.15A3.23,3.23,0,0,0,8.5,28.4a2.88,2.88,0,0,0-2.94,2.16c-.23.73-.32,1.42-.32,4.22s.09,3.49.32,4.22A2.88,2.88,0,0,0,8.5,41.16a3.23,3.23,0,0,0,3.12-2.22.28.28,0,0,1,.41-.15l3.14,1.42a.22.22,0,0,1,.15.34,6.9,6.9,0,0,1-6.84,4.36c-3.44,0-6-1.61-7-4.82C1.06,38.82.94,37.81.94,34.78Z"/><path class="cls-1" d="M22.14,40.15a15.69,15.69,0,0,1-.55-5.37,15.69,15.69,0,0,1,.55-5.37c1-3.18,3.72-4.76,7.16-4.76s6.15,1.58,7.16,4.76A16,16,0,0,1,37,34.78a16,16,0,0,1-.55,5.37c-1,3.18-3.73,4.76-7.16,4.76S23.15,43.33,22.14,40.15ZM32.39,39a14.63,14.63,0,0,0,.31-4.22,14.63,14.63,0,0,0-.31-4.22A3,3,0,0,0,29.3,28.4a3,3,0,0,0-3.09,2.16,14.46,14.46,0,0,0-.32,4.22A14.46,14.46,0,0,0,26.21,39a3,3,0,0,0,3.09,2.16A3,3,0,0,0,32.39,39Z"/><path class="cls-1" d="M44.28,25.25a.28.28,0,0,1,.29-.29H48a.45.45,0,0,1,.46.29l5,11.2h.11l4.88-11.2a.45.45,0,0,1,.46-.29h3.38a.27.27,0,0,1,.29.29V44.31a.27.27,0,0,1-.29.29H59a.28.28,0,0,1-.29-.29V33.25h-.11L55,41.54a.55.55,0,0,1-.55.37h-2a.55.55,0,0,1-.55-.37l-3.64-8.29h-.12V44.31a.27.27,0,0,1-.28.29H44.57a.28.28,0,0,1-.29-.29Z"/><path class="cls-1" d="M70.65,44.6a.28.28,0,0,1-.29-.29V25.25a.28.28,0,0,1,.29-.29h7.62c4.28,0,6.84,2.57,6.84,6.33s-2.59,6.29-6.84,6.29H74.78a.15.15,0,0,0-.17.17v6.56a.28.28,0,0,1-.29.29ZM80.87,31.29A2.58,2.58,0,0,0,78,28.63H74.78a.15.15,0,0,0-.17.17v4.94c0,.12,0,.17.17.17H78A2.55,2.55,0,0,0,80.87,31.29Z"/><path class="cls-1" d="M95.2,25.25a.37.37,0,0,1,.37-.29h3.64a.37.37,0,0,1,.37.29l6.64,19.06c.06.17,0,.29-.2.29h-3.75a.36.36,0,0,1-.38-.29l-1.12-3.44H93.9l-1.1,3.44a.35.35,0,0,1-.38.29H88.64c-.2,0-.26-.12-.2-.29Zm4.41,12-2.22-6.87H97.3l-2.22,6.87Z"/><path class="cls-1" d="M112.55,25.25a.28.28,0,0,1,.29-.29h3.46a.55.55,0,0,1,.5.29l6.92,12.36h.15V25.25a.27.27,0,0,1,.29-.29h3.26a.28.28,0,0,1,.29.29V44.31a.28.28,0,0,1-.29.29H124a.52.52,0,0,1-.49-.29L116.54,32h-.15V44.31a.27.27,0,0,1-.29.29h-3.26a.28.28,0,0,1-.29-.29Z"/><path class="cls-1" d="M140,44.6a.27.27,0,0,1-.28-.29V36.77l-5.81-11.52a.2.2,0,0,1,.2-.29h3.76a.44.44,0,0,1,.43.29l3.55,7.16h.09l3.55-7.16a.44.44,0,0,1,.43-.29h3.64c.2,0,.29.15.2.29l-5.8,11.52v7.54a.28.28,0,0,1-.29.29Z"/></g></g></svg>